<svg width="24" height="24" viewBox="0 0 24 24" fill="none" xmlns="http://www.w3.org/2000/svg">
<g clip-path="url(#clip0_7_50)">
<path d="M11.9793 0C5.66437 0 0.49125 4.85671 0 11.0283L6.44287 13.6854C7.00543 13.3004 7.67359 13.0946 8.35781 13.0955C8.42175 13.0955 8.48487 13.0972 8.54719 13.1007L11.4128 8.95765V8.89964C11.4128 6.4067 13.4462 4.37801 15.9458 4.37801C18.4454 4.37801 20.4788 6.4067 20.4788 8.89964C20.4788 11.3926 18.4454 13.422 15.9458 13.422C15.9112 13.422 15.8774 13.4212 15.8429 13.4204L11.7561 16.3279C11.7587 16.3818 11.7604 16.4356 11.7604 16.4886C11.7604 18.3608 10.2338 19.8835 8.35781 19.8835C6.711 19.8835 5.33316 18.7105 5.02181 17.1581L0.413437 15.2575C1.84059 20.2904 6.47653 23.9802 11.9793 23.9802C18.6185 23.9802 24 18.6114 24 11.9901C24 5.36803 18.6185 0 11.9793 0ZM7.533 18.1929L6.05653 17.5843C6.31781 18.128 6.771 18.5828 7.37213 18.8325C8.67122 19.3727 10.1693 18.7581 10.7108 17.4612C10.9729 16.8375 10.9744 16.1367 10.7151 15.512C10.4556 14.8828 9.96516 14.392 9.33637 14.1304C8.71106 13.8714 8.04159 13.8808 7.45341 14.1023L8.97919 14.7315C9.9375 15.1299 10.3907 16.2275 9.99113 17.1834C9.59241 18.1391 8.49131 18.5914 7.533 18.1929ZM18.9665 8.89964C18.9665 7.23864 17.6111 5.88621 15.9461 5.88621C14.2803 5.88621 12.9249 7.23864 12.9249 8.89964C12.9249 10.5606 14.2803 11.9123 15.9461 11.9123C17.6111 11.9123 18.9665 10.5607 18.9665 8.89964ZM13.6818 8.89455C13.6818 7.64469 14.698 6.63169 15.9505 6.63169C17.2038 6.63169 18.22 7.64469 18.22 8.89455C18.22 10.1444 17.2038 11.1575 15.9504 11.1575C14.698 11.1575 13.6817 10.1444 13.6817 8.89464" fill="white"/>
</g>
<defs>
<clipPath id="clip0_7_50">
<rect width="24" height="24" fill="white"/>
</clipPath>
</defs>
</svg>
