<svg width="23" height="17" viewBox="0 0 23 17" fill="none" xmlns="http://www.w3.org/2000/svg">
<g clip-path="url(#clip0_6_14)">
<path d="M19.4832 1.41783C17.9748 0.746778 16.3791 0.269965 14.7381 0C14.5337 0.351362 14.2949 0.823945 14.1303 1.19991C12.3611 0.946931 10.6081 0.946931 8.87144 1.19991C8.70684 0.82403 8.46265 0.351362 8.25636 0C6.61383 0.270082 5.01674 0.74811 3.50767 1.42134C0.504736 5.73618 -0.309338 9.94372 0.0976539 14.0917C2.0894 15.506 4.0196 16.3651 5.91728 16.9273C6.38894 16.3106 6.80584 15.6577 7.16369 14.9754C6.48233 14.7287 5.82548 14.4248 5.20096 14.0671C5.3653 13.9513 5.52578 13.8306 5.68216 13.7052C9.46656 15.3882 13.5785 15.3882 17.3178 13.7052C17.4749 13.8297 17.6353 13.9504 17.7989 14.0671C17.1734 14.4257 16.5153 14.7303 15.8326 14.9772C16.1925 15.6623 16.6087 16.3158 17.079 16.929C18.9785 16.3669 20.9105 15.5078 22.9022 14.0917C23.3799 9.2832 22.0865 5.11427 19.4832 1.41783ZM7.6793 11.5408C6.54322 11.5408 5.61154 10.5323 5.61154 9.3043C5.61154 8.07628 6.52337 7.06611 7.6793 7.06611C8.83523 7.06611 9.76691 8.07449 9.74705 9.3043C9.74885 10.5323 8.83532 11.5408 7.6793 11.5408ZM15.3206 11.5408C14.1845 11.5408 13.2529 10.5323 13.2529 9.3043C13.2529 8.07628 14.1647 7.06611 15.3206 7.06611C16.4766 7.06611 17.4082 8.07449 17.3884 9.3043C17.3884 10.5323 16.4766 11.5408 15.3206 11.5408Z" fill="#5865F2"/>
</g>
<defs>
<clipPath id="clip0_6_14">
<rect width="23" height="17" fill="white"/>
</clipPath>
</defs>
</svg>
