<svg width="19" height="19" viewBox="0 0 19 19" fill="none" xmlns="http://www.w3.org/2000/svg">
<path d="M15.9571 16.317C15.906 16.4101 15.8308 16.4878 15.7394 16.542C15.648 16.5962 15.5438 16.6248 15.4375 16.625H11.875C11.7751 16.625 11.6768 16.5997 11.5892 16.5516C11.5017 16.5035 11.4277 16.434 11.3741 16.3496L8.36895 11.6271L4.00192 16.4305C3.89546 16.5449 3.74822 16.6127 3.59212 16.6192C3.43602 16.6257 3.28363 16.5705 3.16801 16.4654C3.05238 16.3603 2.98283 16.2139 2.97444 16.0579C2.96605 15.9019 3.01949 15.7488 3.12317 15.632L7.70766 10.5851L3.06157 3.28789C3.00435 3.19812 2.97231 3.09461 2.96882 2.98821C2.96534 2.88181 2.99052 2.77643 3.04173 2.6831C3.09295 2.58977 3.16832 2.51193 3.25995 2.45772C3.35157 2.40352 3.45609 2.37495 3.56254 2.375H7.12505C7.22497 2.37503 7.32328 2.40028 7.41085 2.44842C7.49843 2.49655 7.57243 2.56601 7.62602 2.65035L10.6311 7.37289L14.9982 2.56945C15.1046 2.4551 15.2519 2.38731 15.408 2.38079C15.5641 2.37426 15.7165 2.42953 15.8321 2.53461C15.9477 2.63969 16.0173 2.78611 16.0257 2.94212C16.034 3.09814 15.9806 3.25117 15.8769 3.36805L11.2924 8.41121L15.9385 15.7129C15.9954 15.8027 16.0272 15.9061 16.0304 16.0124C16.0337 16.1187 16.0084 16.2239 15.9571 16.317Z" fill="#9F9F9F"/>
</svg>
